<?xml version="1.0" encoding="UTF-8"?>
<svg id="Layer_1" xmlns="http://www.w3.org/2000/svg" xmlns:xlink="http://www.w3.org/1999/xlink" version="1.1" viewBox="0 0 389.058 373.395">
  <!-- Generator: Adobe Illustrator 30.2.1, SVG Export Plug-In . SVG Version: 2.1.1 Build 1)  -->
  <defs>
    <clipPath id="clippath">
      <circle cx="176" cy="197.395" r="176" fill="none"/>
    </clipPath>
    <clipPath id="clippath-1">
      <circle cx="176" cy="197.395" r="176" fill="none"/>
    </clipPath>
  </defs>
  <circle cx="176" cy="197.395" r="176" fill="#123226"/>
  <g clip-path="url(#clippath)">
    <g opacity=".95">
      <circle cx="176" cy="197.395" r="176" fill="none" stroke="#fff" stroke-linecap="round" stroke-width="32"/>
      <ellipse cx="176" cy="197.395" rx="84" ry="176" fill="none" stroke="#fff" stroke-linecap="round" stroke-width="16"/>
      <path d="M0,197.395h352" fill="none" stroke="#fff" stroke-linecap="round" stroke-width="16"/>
      <path d="M30,117.395h292" fill="none" stroke="#fff" stroke-linecap="round" stroke-width="16"/>
      <path d="M30,277.395h292" fill="none" stroke="#fff" stroke-linecap="round" stroke-width="16"/>
    </g>
  </g>
  <ellipse cx="143.943" cy="241.781" rx="120.373" ry="89.955" transform="translate(-130.743 180.745) rotate(-46.705)" fill="#fff"/>
  <circle cx="318" cy="71.395" r="64" fill="#d94245"/>
  <circle cx="318" cy="71.395" r="64" fill="none" stroke="#fff" stroke-width="14"/>
  <g clip-path="url(#clippath-1)">
    <g>
      <path d="M250.13,185.938c-1.776-8.523-8.878-24.148-8.878-27.344.355-4.261,12.429-14.915,11.719-16.336s-18.821,1.776-20.242,1.065c-1.613-.788-2.968-2.02-3.906-3.551-28.055-41.194-71.734-39.063-110.443-12.429-33.736,23.083-58.24,55.044-80.612,88.78-17.401,26.279-40.839,30.895-69.604,24.148-21.307-5.327-40.484-15.625-59.66-25.924-2.841,21.307,5.327,51.137,22.017,75.286,34.802,51.137,87.36,73.865,144.889,87.36,23.113,5.339,47.214,4.605,69.959-2.131,75.641-21.307,122.872-105.826,104.761-188.924h0ZM153.893,288.213c-33.026,31.606-90.556,15.98-111.863-21.662,26.279,3.906,43.325-6.392,55.044-26.634,1.497-2.555,3.419-4.837,5.682-6.747,18.111-17.756,34.447-19.887,47.941-6.392,18.466,18.111,19.887,45.455,3.196,61.436h0ZM196.152,167.472c-5.688,0-10.299-4.611-10.299-10.299s4.611-10.298,10.299-10.298,10.299,4.611,10.299,10.298-4.611,10.298-10.299,10.298h0Z" fill="#f3a901"/>
      <path d="M118.381,294.605c7.458.355,42.97-18.821,34.092-50.427-3.551,35.512-34.092,50.427-34.092,50.427Z" fill="#f3a901"/>
    </g>
  </g>
</svg>