<svg xmlns="http://www.w3.org/2000/svg" viewBox="0 0 297.45 107.86"><defs><style>.a{fill:#32a34f;}</style></defs><title>ebird</title><path d="M329.88,334.68c12.74-2.63,12.61-.78,12.55-15.36-.07-19.32,0-38.63,0-57.95,0-8.85-.59-9.56-9.49-11.57-.81-.18-1.6-.43-2.69-.73v-5.86h11.37c11.32,0,22.65-.25,34,.11a49.91,49.91,0,0,1,14.62,2.52c7.35,2.55,12.5,7.79,13.54,15.84,1.1,8.54-1.54,15.85-8.82,20.92-3,2.06-6.26,3.63-9.87,5.69,1.56.58,2.85,1.13,4.18,1.56,13.72,4.43,20.42,12.84,20,25.14-.39,11.46-8.83,21-21.68,24.12a54.35,54.35,0,0,1-11.85,1.46c-13.82.17-27.64-.09-41.46.14C329.65,340.79,328.65,339,329.88,334.68Zm28.86-42.1c0,11.19,0,21.45,0,31.71,0,6,2.06,8.36,8.15,9.09a37.65,37.65,0,0,0,6.46.07q15.7-.93,17.48-18.67c1.07-10.69-4.15-19.22-13.86-21.1C371.25,292.56,365.23,292.91,358.74,292.58Zm.3-7.06c9.4-.16,19.15,1.63,24.42-8.07,3.81-7,4.4-14.94-.68-21.7-6.12-8.13-15.22-5.15-23.74-5.48Z" transform="translate(-271.37 -234.61)"/><path d="M542.2,273.64c0-8.29.15-15.92-.06-23.54-.11-3.94-2.5-6.46-6.4-7.26-2.75-.57-5.54-.93-8.59-1.43V236c9.06-.52,18-1.16,26.93-1.36.91,0,2.65,2.6,2.71,4,.29,7.15.13,14.32.13,21.49q0,30.24,0,60.48c0,11.49.25,11.78,11.6,13.08.1.87.28,1.81.3,2.76,0,.79-.13,1.59-.24,2.85-7.64.53-15.08,1.31-22.51,1.36-1.48,0-3-2.76-4.43-4.22-4.13,1.72-8.79,4.67-13.82,5.55-11.4,2-20.52-2.65-27.18-12-9.09-12.76-9.2-32.21-.4-45.25,7.86-11.65,21.61-16.67,35.49-12.95C537.64,272.33,539.53,272.89,542.2,273.64Zm.21,33.41c0-5.5.16-11-.08-16.48a12.93,12.93,0,0,0-1.73-6.06c-5.74-9.22-18.16-9.37-24.76-.44-7.31,9.87-8.34,30.57-1.91,41a20.71,20.71,0,0,0,4.55,5.23c5.18,4.13,11,4.21,17,1.92,5.72-2.23,7.72-6.6,7.06-12.68C542.06,315.41,542.42,311.21,542.41,307.05Z" transform="translate(-271.37 -234.61)"/><path d="M443.2,278.68v-5.49c7.45-.53,14.84-1.14,22.24-1.47.79,0,2.1,1.48,2.35,2.48.4,1.55.11,3.28.11,5.82a29.58,29.58,0,0,1,3.83-3c4.09-2.08,8.11-4.49,12.44-5.85A9,9,0,0,1,494.71,275c2.76,4.09,2.75,8.44.45,12.77-1.87,3.54-5.35,4.58-8.5,3.24-2.54-1.08-4.52-3.81-6.28-6.17-.7-.94-.11-2.83-.11-4.37-8.9,2.13-12.44,6.45-12.44,14.87q0,14.75,0,29.48c0,7.54.93,8.78,8.33,9.42,3.95.34,5.46,1.72,4,6H410.36v-5.48c1.44-.16,2.72-.32,4-.44,3.82-.35,5.64-2.47,5.64-6.25,0-13.32.1-26.64-.06-40-.07-5.74-2.47-7.46-11.72-9.29-.08-1.54-.17-3.15-.29-5.51,7.92-.58,15.64-1.31,23.37-1.49.88,0,2.61,3,2.63,4.67.2,15.48.11,31,.13,46.46,0,10,6.7,14.69,16,10.85,1.64-.68,3.38-3.46,3.42-5.3q.42-20.48.08-41C453.46,281.89,451.37,280.36,443.2,278.68Z" transform="translate(-271.37 -234.61)"/><path class="a" d="M286.14,305c-1,13.24,4.43,23.91,13.48,27.59,9.37,3.82,16.9.75,27.13-11.2a26,26,0,0,1,2.52,1.12,19.24,19.24,0,0,1,1.93,1.42c-4.47,12.7-19.76,20.41-33.88,17.7-20.41-3.91-27.42-22.64-25.7-39.73,1.18-11.67,6.18-21.56,16.86-27.33,10.28-5.55,21-5.29,30.78,1.14,9.38,6.16,11.16,16,10.42,26.43-.08,1-2.56,2.71-3.95,2.74-11.15.22-22.3.12-33.46.12Zm14.6-6.47v0h7.46c8.24,0,8.45-.23,7-8.36a28.64,28.64,0,0,0-1.52-5.22c-2.61-6.54-8.53-9.42-15.31-7.56-6.46,1.77-13.45,12.05-12.35,18.63.17,1,2.11,2.29,3.32,2.39C293.1,298.69,296.93,298.49,300.74,298.49Z" transform="translate(-271.37 -234.61)"/><path d="M426.43,236.31a9.54,9.54,0,0,1,9.48,9.52c.09,5.37-4.32,10.24-9.36,10.36a9.54,9.54,0,0,1-9.61-9.86C417,240.66,421.07,236.3,426.43,236.31Z" transform="translate(-271.37 -234.61)"/></svg>