<svg xmlns="http://www.w3.org/2000/svg" viewBox="0 0 59.82 71.53"><defs><style>.a{fill:#fff;}</style></defs><title>ebird_e_w</title><path class="a" d="M286.14,305c-1,13.24,4.43,23.91,13.48,27.59,9.37,3.82,16.9.75,27.13-11.2a26,26,0,0,1,2.52,1.12,19.24,19.24,0,0,1,1.93,1.42c-4.47,12.7-19.76,20.41-33.88,17.7-20.41-3.91-27.42-22.64-25.7-39.73,1.18-11.67,6.18-21.56,16.86-27.33,10.28-5.55,21-5.29,30.78,1.14,9.38,6.16,11.16,16,10.42,26.43-.08,1-2.56,2.71-3.95,2.74-11.15.22-22.3.12-33.46.12Zm14.6-6.47v0h7.46c8.24,0,8.45-.23,7-8.36a28.64,28.64,0,0,0-1.52-5.22c-2.61-6.54-8.53-9.42-15.31-7.56-6.46,1.77-13.45,12.05-12.35,18.63.17,1,2.11,2.29,3.32,2.39C293.1,298.69,296.93,298.49,300.74,298.49Z" transform="translate(-271.37 -270.59)"/></svg>